<svg width="460" height="460" xmlns="http://www.w3.org/2000/svg" xml:space="preserve" version="1.1">
  <defs>
    <linearGradient y2="0.55132" x2="0.49262" y1="0.0094" x1="0.5005" id="SVGID_1_">
      <stop stop-color="#6AFF52" offset="0" />
      <stop stop-color="#4ED259" offset="0.04493" />
      <stop stop-color="#39AF5E" offset="0.08665" />
      <stop stop-color="#2C9A61" offset="0.1208" />
      <stop stop-color="#279262" offset="0.1432" />
      <stop stop-color="#000000" offset="1" />
    </linearGradient>
  </defs>
  <g>
    <g id="svg_1">
      <path id="svg_3" d="m383.4,76.6c-41,-41 -95.5,-63.6 -153.4,-63.6s-112.5,22.6 -153.4,63.6c-41,41 -63.6,95.5 -63.6,153.4c0,58 22.6,112.5 63.6,153.4c41,41 95.5,63.6 153.4,63.6s112.5,-22.6 153.4,-63.6c41,-41 63.6,-95.5 63.6,-153.4c0,-58 -22.6,-112.5 -63.6,-153.4z" />
      <g id="svg_4">
        <path id="svg_5" fill="#279262" d="m285.9,226.9c-14.7,0.7 -24.2,13 -35.9,29.7c24.9,-25.6 48.9,-26.2 70.9,-11.5c-12.8,-12 -24.3,-18.7 -35,-18.2z" class="st1" />
        <path id="svg_6" fill="#6AFF52" d="m338.4,204.7c0,-4.2 -1.9,-8.2 -3.2,-12.2c-15.6,-42.3 -52.4,-78 -100.8,-77.8c-1.5,0 -3.5,0 -5.5,0.2c-1.5,0 -4.8,0.2 -6.8,0.2c-45.2,1 -75.9,28.5 -94.8,70c-1.1,2.8 -3.5,10.2 -4.7,13.4c-3,12.3 -1.3,21.3 14,14.8c-3.5,7 -4.7,13.7 -5.2,21c2.2,-1.3 4.4,-2.5 6.6,-3.6c4.7,-2.3 9.5,-3.9 15,-4.2c-22.9,13.4 -32.7,41.2 -26,65.3c4.1,14.5 14.1,27.6 30.8,35.5c-2.8,0.2 -6,0 -10.9,-0.9c2.2,8 5,15.5 8.4,19.5c6.3,7.5 14.7,18.7 20.2,24.7c5,6.4 17.5,19.2 22.7,23.2c13.2,10.2 21.9,15 31.4,15.2c10.2,0.2 20.7,-5 31.7,-14.2c7.2,-6.1 16.2,-15.2 24.1,-24.5c5.6,-6.8 12,-15.4 19.7,-24.9c4.2,-5.2 6.4,-13.4 7.8,-18.7c-3.5,0.7 -7.3,1 -10.9,0.9c16.7,-8 26.2,-20.1 30.4,-33.2c8.3,-26.2 -4.8,-56.5 -25.6,-67.5c5.2,0.4 10.8,2.1 15.9,4.7c2,1 3.9,2 5.6,3.2c-0.9,-13.5 -3.2,-16.5 -5.2,-21c10.5,4.5 15.2,3.3 15.3,-9.1zm-106.9,127.2c8,6.3 7.8,11.2 8,16.7l-8,-4.2l0,-12.5zm-0.5,33.4c8.2,0 16.2,-1.6 23.8,-5.3c-13.4,15.5 -34.2,15.4 -47.9,0c7.6,3.6 15.8,5.3 24.1,5.3zm58.4,-24c-0.9,2 -2.3,3.4 -4.2,4.7c-3.7,2.5 -7.7,4.2 -12,4.8c-3.7,0.5 -7.2,0.7 -10.7,-0.7c-1.6,-0.5 -3,-1.3 -4.2,-2.7c-2.2,-2.7 -1.6,-6 0.3,-8.2c1.8,-2 4.2,-3.4 6.8,-4.3c3.9,-1.7 7.8,-2.5 12.2,-2.3c2.5,-0.2 5.2,0.3 7.7,1.2c0.9,0.3 1.8,0.9 2.5,1.3c2.1,1.5 2.6,3.8 1.6,6.2zm-118.2,0c-1,-2.3 -0.5,-4.3 1.5,-6c1.5,-1.3 3.4,-1.8 5.3,-2.3c2.1,-0.2 3.8,-0.2 5.6,-0.2c5.3,0 10.4,1.2 15,3.7c1.3,0.7 2.3,1.5 3.4,2.5c2.8,3 2.5,7.3 -1,9.8c-2.2,1.5 -4.7,2.2 -7.3,2.3c-7,0.3 -13.4,-1.6 -19.1,-5.9c-1.4,-1 -2.6,-2.3 -3.4,-3.9zm57.1,-9.4l0,12.5l-8,4.2c0.4,-5.5 0.2,-10.4 8,-16.7zm-53.4,-105c14.7,0.7 24.2,13 35.9,29.7c-24.9,-25.6 -48.7,-26.2 -70.9,-11.5c12.8,-12 24.3,-18.7 35,-18.2zm-26.5,24.4c5.3,-3.5 11.8,-3.4 17.3,-3.4c19.1,1 37.7,13.7 45.6,31.2c4.7,10.5 7.8,35.2 5.3,41.1c-1.6,3.7 -2.3,3.8 -12.7,3.8c-21.2,0.2 -52.5,-12.2 -63.1,-35.9c-5.1,-11.4 -6.9,-27 7.6,-36.8zm171.1,36.9c-10.5,23.7 -41.9,36.1 -63.1,35.9c-10.4,0 -11,-0.1 -12.7,-3.8c-2.5,-5.9 0.7,-30.5 5.3,-41.1c7.8,-17.5 26.5,-30.2 45.6,-31.2c5.5,0 12,-0.2 17.3,3.4c14.5,9.7 12.7,25.3 7.6,36.8zm1.4,-43.1c-22,-14.7 -46,-14.2 -70.9,11.5c11.7,-16.7 21.2,-29 35.9,-29.7c10.7,-0.5 22.2,6.2 35,18.2z" class="st0" />
        <path id="svg_7" fill="#279262" d="m210.8,256.6c-11.7,-16.7 -21.2,-29 -35.9,-29.7c-10.7,-0.5 -22.2,6.2 -35,18.2c22.2,-14.7 46,-14.2 70.9,11.5z" class="st1" />
        <path id="svg_8" fill="url(#SVGID_1_)" d="m345.6,107c8.9,7.7 18.4,-0.3 18,-7.7c-0.9,-14 -22.2,-12.9 -20.7,1.8c-13.2,5.2 -26.7,14 -37.4,28c-36.1,-32.9 -108,-38.7 -151.6,0c-10,-12.9 -22.2,-22.5 -37,-27.9c0.9,-8.1 -5,-12.3 -10.6,-11.9c-5,0.2 -9.8,3.7 -10,10.7c0.3,11 13,12.3 17.7,7.2c6.5,6 21.4,19.2 24.7,35.5c-26.9,32.1 -34.6,66.9 -29.4,103.6c-11.2,21.4 -9.5,48.7 19.8,70.1c-1.8,0 -3.8,-0.3 -6.4,-1c2,3 3.5,6.8 5.5,9.7c2.2,3 6.2,6.5 8.2,9.5c82,113 104,113.2 186.4,1.6c2.8,-3.8 6.5,-7 9.8,-11.4c1.6,-2 3.7,-6.2 5.2,-9c-1.5,0.2 -3.8,0.7 -6.5,0.3c19.5,-10 35,-35.9 19.5,-70c7,-49.3 -10.2,-78.6 -30,-103.8c3,-12.8 12.6,-25.1 24.8,-35.3zm-22.2,106.6c2,4.5 4.3,7.5 5.2,21c-1.8,-1.1 -3.7,-2.2 -5.6,-3.2c-5.1,-2.5 -10.7,-4.3 -15.9,-4.7c20.8,11 33.8,41.4 25.6,67.5c-4.2,13.1 -13.7,25.2 -30.4,33.2c3.5,0.2 7.3,-0.2 10.9,-0.9c-1.5,5.3 -3.7,13.5 -7.8,18.7c-7.7,9.5 -14,18 -19.7,24.9c-7.8,9.3 -16.8,18.4 -24.1,24.5c-11,9.2 -21.6,14.3 -31.7,14.2c-9.5,-0.2 -18.2,-5 -31.4,-15.2c-5.2,-4 -17.7,-16.8 -22.7,-23.2c-5.5,-6 -13.9,-17.2 -20.2,-24.7c-3.4,-4 -6.2,-11.5 -8.4,-19.5c4.8,0.9 8,1 10.9,0.9c-16.7,-7.9 -26.8,-21 -30.8,-35.5c-6.8,-24.1 3,-51.8 26,-65.3c-5.5,0.3 -10.3,1.9 -15,4.2c-2.2,1.1 -4.4,2.3 -6.6,3.6c0.5,-7.3 1.6,-14 5.2,-21c-15.4,6.5 -17,-2.5 -14,-14.8c1.2,-3.2 3.5,-10.5 4.7,-13.4c18.9,-41.4 49.6,-68.9 94.8,-70c2,0 5.3,-0.2 6.8,-0.2c2,-0.2 4,-0.2 5.5,-0.2c48.4,-0.2 85.1,35.5 100.8,77.8c1.3,4 3.2,8 3.2,12.2c-0.4,12.6 -5.1,13.8 -15.3,9.1z" class="st2" />
        <path id="svg_9" d="m216.6,320.2c2.5,-5.9 -0.7,-30.5 -5.3,-41.1c-7.8,-17.5 -26.5,-30.2 -45.6,-31.2c-5.5,0 -12,-0.2 -17.3,3.4c-14.5,9.8 -12.7,25.4 -7.5,36.9c10.5,23.7 41.9,36.1 63.1,35.9c10.3,-0.1 11,-0.2 12.6,-3.9zm-29.8,-20.2c-2.2,2.6 -4.8,3.8 -8,4c-1.5,-0.2 -3,-0.3 -3.7,-1.6c-0.9,-1.5 -0.2,-2.8 0.9,-4c2,-2.5 4.7,-3.8 7.8,-4c1.5,0 2.8,0.3 3.7,1.6c0.8,1.5 0.1,2.9 -0.7,4zm1.5,-26.2c-0.7,2.2 -1.6,4.2 -3.2,6c-6,7.5 -14,11.3 -23.9,12c-2.5,0 -5,-0.3 -7.3,-1.3c-5.7,-2.3 -8.2,-7.5 -6.5,-13.4c0.7,-2.3 1.6,-4.3 3.2,-6.2c6.4,-7.8 14.7,-11.8 24.9,-12c2.2,0 4.3,0.5 6.4,1.3c5.8,2.4 8.3,7.6 6.4,13.6z" />
        <path id="svg_10" d="m311.9,251.3c-5.3,-3.5 -11.8,-3.4 -17.3,-3.4c-19.1,1 -37.7,13.7 -45.6,31.2c-4.7,10.5 -7.8,35.2 -5.3,41.1c1.6,3.7 2.3,3.8 12.7,3.8c21.2,0.2 52.5,-12.2 63.1,-35.9c5.1,-11.4 6.9,-27 -7.6,-36.8zm-7.6,45.6c-0.2,0.7 -0.5,1.2 -0.9,1.6c-2.2,2.4 -4.8,3.6 -7.8,3.9c-1.6,0 -3.2,-0.3 -3.8,-1.8c-0.7,-1.5 -0.2,-2.8 0.9,-3.8c2.2,-2.7 5,-4 8.5,-4c0.5,0 1,0.2 1.3,0.3c1.6,0.8 2.3,2.1 1.8,3.8zm0,-24c-0.9,3.2 -2.3,5.9 -4.3,8.4c-6,6.4 -13.5,10.3 -21.9,11c-3,0 -5.3,-0.2 -7.7,-1c-5.7,-2.2 -8.4,-7.2 -6.8,-13c0.5,-1.8 1.2,-3.7 2.2,-5.3c6.2,-9 14.7,-13.9 25.7,-14.2c2,0 4,0.3 6,1.2c5.5,2 8.1,7 6.8,12.9z" />
        <path id="svg_11" fill="#073320" d="m228.3,331.9c-7.8,6.3 -7.7,11.2 -8,16.7l8,-4.2l0,-12.5z" class="st3" />
        <path id="svg_12" fill="#073320" d="m231.5,331.9l0,12.5l8,4.2c-0.2,-5.5 0,-10.4 -8,-16.7z" class="st3" />
        <path id="svg_13" fill="#279262" d="m198.6,336.4c-4.7,-2.5 -9.7,-3.7 -15,-3.7c-1.8,0 -3.5,0 -5.6,0.2c-2,0.5 -3.9,1 -5.3,2.3c-2,1.7 -2.5,3.7 -1.5,6c0.9,1.6 2,3 3.4,4c5.7,4.2 12.1,6.2 19.1,5.9c2.7,-0.2 5.2,-0.9 7.3,-2.3c3.5,-2.5 3.9,-6.8 1,-9.8c-1.1,-1.1 -2.1,-1.9 -3.4,-2.6z" class="st1" />
        <path id="svg_14" fill="#279262" d="m287.9,335.1c-0.7,-0.5 -1.6,-1 -2.5,-1.3c-2.5,-0.9 -5.2,-1.4 -7.7,-1.2c-4.3,-0.2 -8.3,0.6 -12.2,2.3c-2.7,1 -5,2.3 -6.8,4.3c-2,2.2 -2.5,5.5 -0.3,8.2c1.1,1.4 2.5,2.2 4.2,2.7c3.5,1.4 7,1.2 10.7,0.7c4.3,-0.7 8.3,-2.3 12,-4.8c1.8,-1.3 3.3,-2.7 4.2,-4.7c0.9,-2.4 0.4,-4.7 -1.6,-6.2z" class="st1" />
        <path id="svg_15" fill="#073320" d="m207,359.9c13.6,15.4 34.5,15.5 47.9,0c-7.7,3.7 -15.6,5.3 -23.8,5.3c-8.4,0.1 -16.6,-1.6 -24.1,-5.3z" class="st3" />
        <path id="svg_16" fill="#FFFFFF" d="m297.4,259.8c-2,-0.9 -4,-1.2 -6,-1.2c-11,0.3 -19.5,5.2 -25.7,14.2c-1,1.6 -1.6,3.5 -2.2,5.3c-1.5,5.9 1.1,10.9 6.8,13c2.3,0.9 4.7,1 7.7,1c8.4,-0.7 15.9,-4.5 21.9,-11c2,-2.5 3.5,-5.2 4.3,-8.4c1.4,-5.7 -1.2,-10.7 -6.8,-12.9z" class="st4" />
        <path id="svg_17" fill="#FFFFFF" d="m302.5,293.2c-0.3,-0.2 -0.8,-0.3 -1.3,-0.3c-3.5,0 -6.4,1.3 -8.5,4c-1,1 -1.5,2.3 -0.9,3.8c0.6,1.5 2.2,1.8 3.8,1.8c3,-0.3 5.7,-1.5 7.8,-3.9c0.3,-0.5 0.7,-1 0.9,-1.6c0.5,-1.8 -0.2,-3.1 -1.8,-3.8z" class="st4" />
        <path id="svg_18" fill="#FFFFFF" d="m181.8,260.3c-2,-0.8 -4.2,-1.3 -6.4,-1.3c-10.2,0.2 -18.5,4.2 -24.9,12c-1.5,1.9 -2.5,3.9 -3.2,6.2c-1.7,5.9 0.8,11 6.5,13.4c2.3,1 4.8,1.3 7.3,1.3c9.8,-0.7 17.9,-4.5 23.9,-12c1.5,-1.9 2.5,-3.9 3.2,-6c2,-6.1 -0.5,-11.3 -6.4,-13.6z" class="st4" />
        <path id="svg_19" fill="#FFFFFF" d="m183.8,294.4c-3.2,0.2 -5.9,1.5 -7.8,4c-1,1.1 -1.7,2.5 -0.9,4c0.7,1.3 2.2,1.5 3.7,1.6c3.2,-0.2 5.9,-1.4 8,-4c0.9,-1.1 1.5,-2.5 0.7,-4c-0.9,-1.2 -2.3,-1.6 -3.7,-1.6z" class="st4" />
      </g>
    </g>
  </g>
</svg>