<svg width="150" height="38" viewBox="0 0 150 38" fill="none" xmlns="http://www.w3.org/2000/svg">
<mask id="path-1-inside-1_3324_1594" fill="white">
<path d="M50.6306 4.02732C49.275 1.02566 46.8665 -0.261351 43.6249 0.102859C40.5446 0.450699 38.0877 2.1142 35.8143 4.09484C35.1789 4.64525 34.721 4.80485 33.8859 4.41813C28.7239 2.02826 23.5156 2.02826 18.3556 4.41404C17.6234 4.75165 17.1695 4.73528 16.5401 4.1726C14.5693 2.40475 12.3888 0.952 9.78861 0.284963C6.10321 -0.637838 3.10164 0.68805 1.57261 4.15418C-0.741101 9.41476 -0.450627 14.6487 2.10716 19.7415C3.17224 21.8675 4.87273 23.1422 7.36798 22.913C8.1325 22.8435 8.40078 23.1504 8.57829 23.8931C10.5773 32.2822 17.2824 37.7515 25.8051 37.993C29.9131 38.1093 33.9344 36.7807 37.1867 34.2324C40.4391 31.6841 42.7223 28.073 43.6491 24.0118C43.8185 23.2895 43.992 22.821 44.8896 22.911C47.3103 23.1524 49.0208 21.9227 50.0799 19.852C52.7264 14.6835 53.0028 9.36156 50.6306 4.02732ZM45.3153 7.77787C43.7661 7.72876 42.2713 7.91905 40.9259 8.77637L40.4256 9.06078C40.6697 9.2122 40.9037 9.1324 41.1397 9.04442C42.4421 8.87996 43.7643 9.01421 45.0087 9.43727C45.4383 9.59482 45.8518 9.83217 45.6844 10.3887C45.517 10.9453 45.0651 10.9228 44.6113 10.7816C43.1078 10.2768 41.48 10.3042 39.9939 10.8593C38.826 11.3013 39.0358 9.99791 38.5295 9.59278C38.126 9.25721 38.4185 8.77433 38.7856 8.4715C40.706 6.90417 42.9148 6.24123 45.3576 6.33739C45.8498 6.35581 46.3662 6.48472 46.3037 7.15584C46.2432 7.7349 45.7893 7.80037 45.3153 7.77787ZM6.54094 10.3212C6.40175 9.69304 6.96858 9.55595 7.42043 9.38612C8.62469 8.94006 9.88341 9.00554 11.1462 8.86231C9.95401 7.92519 8.60048 7.77787 7.20863 7.77787C6.65995 7.77787 5.92771 7.89449 5.95999 7.04331C5.98823 6.22486 6.73055 6.32921 7.26712 6.32716C9.37176 6.27886 11.4327 6.94021 13.127 8.20755C13.6092 8.56767 14.2083 8.95643 13.6677 9.69713C13.238 10.2844 13.1593 11.334 11.9087 10.7857C10.5995 10.2066 9.18749 10.3253 7.81378 10.7407C7.30343 10.8921 6.70433 11.0619 6.54094 10.3212ZM13.3994 19.8173C13.5285 18.8576 14.1195 18.2827 15.0817 18.3236C16.0439 18.3645 16.5885 18.9865 16.647 19.9503C16.7015 20.828 15.8402 21.6301 14.9526 21.5871C14.065 21.5442 13.2804 20.7135 13.3994 19.8173ZM20.5947 26.24C20.5523 25.6712 20.5947 25.0942 20.5947 24.5192C20.5947 22.156 20.9033 19.8439 21.9664 17.7036C22.8277 15.9665 24.1207 14.7838 26.1399 14.7961C28.1087 14.7961 29.3815 15.991 30.1985 17.6606C31.6307 20.605 31.9817 23.7581 31.546 26.9684C31.2394 29.2437 29.6659 30.631 27.3906 30.8991C26.6978 30.9744 25.9998 30.9874 25.3048 30.9379C22.5009 30.7701 20.8145 29.076 20.5947 26.24ZM35.5985 19.9196C35.6731 18.9517 36.244 18.4177 37.2122 18.3011C38.1321 18.3911 38.7352 18.8842 38.8401 19.8561C38.9369 20.7544 38.1583 21.5749 37.2526 21.5994C36.3469 21.624 35.5299 20.8076 35.5985 19.9196Z"/>
<path d="M30.3074 25.0736V24.3718C30.2941 22.476 29.9216 20.6004 29.21 18.8473C28.619 17.458 27.8142 16.2262 26.1056 16.218C24.397 16.2098 23.5518 17.4109 22.981 18.8268C22.0006 21.2453 21.7707 23.7948 22.0087 26.377C22.1176 27.5617 22.6139 28.5889 23.7576 29.1536C27.2171 30.856 30.2933 28.9428 30.3074 25.0736Z"/>
</mask>
<path d="M50.6306 4.02732C49.275 1.02566 46.8665 -0.261351 43.6249 0.102859C40.5446 0.450699 38.0877 2.1142 35.8143 4.09484C35.1789 4.64525 34.721 4.80485 33.8859 4.41813C28.7239 2.02826 23.5156 2.02826 18.3556 4.41404C17.6234 4.75165 17.1695 4.73528 16.5401 4.1726C14.5693 2.40475 12.3888 0.952 9.78861 0.284963C6.10321 -0.637838 3.10164 0.68805 1.57261 4.15418C-0.741101 9.41476 -0.450627 14.6487 2.10716 19.7415C3.17224 21.8675 4.87273 23.1422 7.36798 22.913C8.1325 22.8435 8.40078 23.1504 8.57829 23.8931C10.5773 32.2822 17.2824 37.7515 25.8051 37.993C29.9131 38.1093 33.9344 36.7807 37.1867 34.2324C40.4391 31.6841 42.7223 28.073 43.6491 24.0118C43.8185 23.2895 43.992 22.821 44.8896 22.911C47.3103 23.1524 49.0208 21.9227 50.0799 19.852C52.7264 14.6835 53.0028 9.36156 50.6306 4.02732ZM45.3153 7.77787C43.7661 7.72876 42.2713 7.91905 40.9259 8.77637L40.4256 9.06078C40.6697 9.2122 40.9037 9.1324 41.1397 9.04442C42.4421 8.87996 43.7643 9.01421 45.0087 9.43727C45.4383 9.59482 45.8518 9.83217 45.6844 10.3887C45.517 10.9453 45.0651 10.9228 44.6113 10.7816C43.1078 10.2768 41.48 10.3042 39.9939 10.8593C38.826 11.3013 39.0358 9.99791 38.5295 9.59278C38.126 9.25721 38.4185 8.77433 38.7856 8.4715C40.706 6.90417 42.9148 6.24123 45.3576 6.33739C45.8498 6.35581 46.3662 6.48472 46.3037 7.15584C46.2432 7.7349 45.7893 7.80037 45.3153 7.77787ZM6.54094 10.3212C6.40175 9.69304 6.96858 9.55595 7.42043 9.38612C8.62469 8.94006 9.88341 9.00554 11.1462 8.86231C9.95401 7.92519 8.60048 7.77787 7.20863 7.77787C6.65995 7.77787 5.92771 7.89449 5.95999 7.04331C5.98823 6.22486 6.73055 6.32921 7.26712 6.32716C9.37176 6.27886 11.4327 6.94021 13.127 8.20755C13.6092 8.56767 14.2083 8.95643 13.6677 9.69713C13.238 10.2844 13.1593 11.334 11.9087 10.7857C10.5995 10.2066 9.18749 10.3253 7.81378 10.7407C7.30343 10.8921 6.70433 11.0619 6.54094 10.3212ZM13.3994 19.8173C13.5285 18.8576 14.1195 18.2827 15.0817 18.3236C16.0439 18.3645 16.5885 18.9865 16.647 19.9503C16.7015 20.828 15.8402 21.6301 14.9526 21.5871C14.065 21.5442 13.2804 20.7135 13.3994 19.8173ZM20.5947 26.24C20.5523 25.6712 20.5947 25.0942 20.5947 24.5192C20.5947 22.156 20.9033 19.8439 21.9664 17.7036C22.8277 15.9665 24.1207 14.7838 26.1399 14.7961C28.1087 14.7961 29.3815 15.991 30.1985 17.6606C31.6307 20.605 31.9817 23.7581 31.546 26.9684C31.2394 29.2437 29.6659 30.631 27.3906 30.8991C26.6978 30.9744 25.9998 30.9874 25.3048 30.9379C22.5009 30.7701 20.8145 29.076 20.5947 26.24ZM35.5985 19.9196C35.6731 18.9517 36.244 18.4177 37.2122 18.3011C38.1321 18.3911 38.7352 18.8842 38.8401 19.8561C38.9369 20.7544 38.1583 21.5749 37.2526 21.5994C36.3469 21.624 35.5299 20.8076 35.5985 19.9196Z" fill="url(#paint0_linear_3324_1594)"/>
<path d="M30.3074 25.0736V24.3718C30.2941 22.476 29.9216 20.6004 29.21 18.8473C28.619 17.458 27.8142 16.2262 26.1056 16.218C24.397 16.2098 23.5518 17.4109 22.981 18.8268C22.0006 21.2453 21.7707 23.7948 22.0087 26.377C22.1176 27.5617 22.6139 28.5889 23.7576 29.1536C27.2171 30.856 30.2933 28.9428 30.3074 25.0736Z" fill="url(#paint1_linear_3324_1594)"/>
<path d="M50.6306 4.02732L51.5443 3.62097L51.5419 3.61575L50.6306 4.02732ZM43.6249 0.102859L43.5132 -0.890889L43.5127 -0.890826L43.6249 0.102859ZM35.8143 4.09484L36.4691 4.8507L36.4712 4.84882L35.8143 4.09484ZM33.8859 4.41813L34.3061 3.5107L34.306 3.51067L33.8859 4.41813ZM18.3556 4.41404L18.7743 5.32216L18.7753 5.32171L18.3556 4.41404ZM16.5401 4.1726L15.8724 4.91699L15.8736 4.91809L16.5401 4.1726ZM9.78861 0.284963L10.0371 -0.683687L10.0315 -0.685089L9.78861 0.284963ZM1.57261 4.15418L0.657677 3.75057L0.657235 3.75158L1.57261 4.15418ZM2.10716 19.7415L3.00124 19.2936L3.00079 19.2927L2.10716 19.7415ZM7.36798 22.913L7.27736 21.9172L7.27653 21.9172L7.36798 22.913ZM8.57829 23.8931L9.55106 23.6613L9.5509 23.6607L8.57829 23.8931ZM25.8051 37.993L25.7767 38.9926L25.7767 38.9926L25.8051 37.993ZM43.6491 24.0118L42.6755 23.7834L42.6741 23.7893L43.6491 24.0118ZM44.8896 22.911L44.7899 23.906L44.7904 23.9061L44.8896 22.911ZM50.0799 19.852L49.1898 19.3963L49.1895 19.3967L50.0799 19.852ZM45.3153 7.77787L45.3627 6.77899L45.3548 6.77862L45.347 6.77837L45.3153 7.77787ZM40.9259 8.77637L41.4201 9.6457L41.442 9.63325L41.4633 9.61972L40.9259 8.77637ZM40.4256 9.06078L39.9314 8.19146L38.4682 9.02331L39.8985 9.91056L40.4256 9.06078ZM41.1397 9.04442L41.0144 8.05229L40.8992 8.06684L40.7904 8.10741L41.1397 9.04442ZM45.0087 9.43727L45.3529 8.4984L45.3418 8.49431L45.3305 8.49049L45.0087 9.43727ZM44.6113 10.7816L44.293 11.7296L44.3036 11.7331L44.3142 11.7364L44.6113 10.7816ZM39.9939 10.8593L39.644 9.92255L39.64 9.92405L39.9939 10.8593ZM38.5295 9.59278L37.89 10.3616L37.8973 10.3677L37.9047 10.3736L38.5295 9.59278ZM38.7856 8.4715L38.1533 7.69677L38.1493 7.70007L38.7856 8.4715ZM45.3576 6.33739L45.3183 7.33662L45.3202 7.3367L45.3576 6.33739ZM46.3037 7.15584L47.2983 7.25979L47.2994 7.24862L46.3037 7.15584ZM6.54094 10.3212L7.51746 10.1058L7.51726 10.1049L6.54094 10.3212ZM7.42043 9.38612L7.07309 8.44837L7.06861 8.45005L7.42043 9.38612ZM11.1462 8.86231L11.2589 9.85594L13.6791 9.58142L11.7642 8.07613L11.1462 8.86231ZM5.95999 7.04331L6.95928 7.0812L6.95939 7.07779L5.95999 7.04331ZM7.26712 6.32716L7.27094 7.32716L7.2805 7.32712L7.29007 7.3269L7.26712 6.32716ZM13.127 8.20755L12.5281 9.00832L12.5286 9.00872L13.127 8.20755ZM13.6677 9.69713L14.4747 10.2876L14.4754 10.2867L13.6677 9.69713ZM11.9087 10.7857L11.5042 11.7002L11.5071 11.7015L11.9087 10.7857ZM7.81378 10.7407L8.09822 11.6994L8.10321 11.6979L7.81378 10.7407ZM13.3994 19.8173L12.4083 19.6839L12.4081 19.6856L13.3994 19.8173ZM16.647 19.9503L15.6489 20.0108L15.649 20.0122L16.647 19.9503ZM20.5947 26.24L19.5974 26.3143L19.5977 26.3173L20.5947 26.24ZM21.9664 17.7036L22.862 18.1485L22.8623 18.1478L21.9664 17.7036ZM26.1399 14.7961L26.1338 15.7961H26.1399V14.7961ZM30.1985 17.6606L31.0978 17.2232L31.0967 17.2211L30.1985 17.6606ZM31.546 26.9684L30.5551 26.834L30.5549 26.8349L31.546 26.9684ZM27.3906 30.8991L27.4987 31.8932L27.5076 31.8922L27.3906 30.8991ZM25.3048 30.9379L25.3758 29.9404L25.3645 29.9397L25.3048 30.9379ZM35.5985 19.9196L36.5955 19.9966L36.5955 19.9964L35.5985 19.9196ZM37.2122 18.3011L37.3096 17.3058L37.201 17.2952L37.0926 17.3083L37.2122 18.3011ZM38.8401 19.8561L39.8344 19.749L39.8343 19.7488L38.8401 19.8561ZM30.3074 25.0736L31.3074 25.0773V25.0736H30.3074ZM30.3074 24.3718L31.3074 24.3718L31.3074 24.3648L30.3074 24.3718ZM29.21 18.8473L30.1366 18.4712L30.1335 18.4635L30.1302 18.4558L29.21 18.8473ZM22.981 18.8268L23.9077 19.2025L23.9084 19.2007L22.981 18.8268ZM22.0087 26.377L23.0045 26.2854L23.0045 26.2852L22.0087 26.377ZM23.7576 29.1536L23.3149 30.0502L23.3161 30.0508L23.7576 29.1536ZM51.5419 3.61575C50.7929 1.9571 49.7186 0.702619 48.3193 -0.0720031C46.9229 -0.845009 45.2922 -1.09077 43.5132 -0.890889L43.7365 1.09661C45.1991 0.932277 46.3935 1.14792 47.3507 1.67778C48.3049 2.20603 49.1127 3.09588 49.7192 4.4389L51.5419 3.61575ZM43.5127 -0.890826C40.1251 -0.508282 37.477 1.31996 35.1574 3.34086L36.4712 4.84882C38.6984 2.90843 40.9641 1.40968 43.7371 1.09654L43.5127 -0.890826ZM35.1596 3.33899C34.8773 3.58355 34.7652 3.61997 34.7267 3.62778C34.7142 3.63029 34.6169 3.65462 34.3061 3.5107L33.4657 5.32556C33.99 5.56837 34.5392 5.70625 35.1233 5.58804C35.6814 5.47513 36.116 5.15655 36.4691 4.8507L35.1596 3.33899ZM34.306 3.51067C28.8776 0.997455 23.3622 0.997444 17.9359 3.50637L18.7753 5.32171C23.6689 3.05908 28.5702 3.05907 33.4658 5.32559L34.306 3.51067ZM17.9369 3.50592C17.6295 3.64763 17.5346 3.63874 17.5222 3.63732C17.5179 3.63684 17.4988 3.63498 17.454 3.61126C17.4036 3.58462 17.3237 3.53174 17.2066 3.4271L15.8736 4.91809C16.2676 5.27038 16.7255 5.55968 17.2964 5.62454C17.8513 5.68757 18.3494 5.51806 18.7743 5.32216L17.9369 3.50592ZM17.2079 3.4282C15.1709 1.60097 12.8502 0.0380038 10.0371 -0.683671L9.54011 1.2536C11.9273 1.866 13.9678 3.20852 15.8724 4.91699L17.2079 3.4282ZM10.0315 -0.685089C8.01766 -1.18934 6.10414 -1.09896 4.45173 -0.333689C2.79344 0.434301 1.50335 1.83353 0.657678 3.75057L2.48754 4.55779C3.17089 3.00871 4.14611 2.01192 5.29221 1.48113C6.44419 0.947626 7.87415 0.836468 9.54571 1.25502L10.0315 -0.685089ZM0.657235 3.75158C-1.78471 9.30371 -1.4686 14.85 1.21354 20.1904L3.00079 19.2927C0.567344 14.4475 0.302503 9.52582 2.48799 4.55678L0.657235 3.75158ZM1.21309 20.1895C1.80324 21.3674 2.60236 22.3758 3.66298 23.0532C4.73608 23.7386 6.0102 24.0419 7.45944 23.9088L7.27653 21.9172C6.23051 22.0133 5.40676 21.7938 4.73953 21.3677C4.05983 20.9335 3.47616 20.2416 3.00124 19.2936L1.21309 20.1895ZM7.45861 23.9089C7.51923 23.9034 7.56292 23.9028 7.59284 23.9039C7.62257 23.9051 7.63493 23.9079 7.6343 23.9078C7.62459 23.9056 7.58119 23.8915 7.53672 23.8528C7.49813 23.8192 7.49692 23.7999 7.51667 23.842C7.53842 23.8883 7.56949 23.9741 7.60569 24.1256L9.5509 23.6607C9.45364 23.2537 9.28464 22.7227 8.84981 22.3442C8.37089 21.9273 7.78676 21.8708 7.27736 21.9172L7.45861 23.9089ZM7.60553 24.1249C9.70833 32.9495 16.7971 38.7382 25.7767 38.9926L25.8334 36.9934C17.7678 36.7649 11.4463 31.615 9.55106 23.6613L7.60553 24.1249ZM25.7767 38.9926C30.1194 39.1156 34.3686 37.7109 37.8035 35.0195L36.57 33.4452C33.5002 35.8504 29.7068 37.1031 25.8334 36.9934L25.7767 38.9926ZM37.8035 35.0195C41.2381 32.3284 43.6467 28.5173 44.624 24.2343L42.6741 23.7893C41.798 27.6288 39.6401 31.0397 36.57 33.4452L37.8035 35.0195ZM44.6226 24.2402C44.6638 24.0646 44.6945 23.9536 44.7243 23.874C44.7533 23.7968 44.7642 23.7984 44.7392 23.8262C44.725 23.8419 44.7046 23.8602 44.6789 23.8763C44.6534 23.8923 44.6324 23.9001 44.6223 23.903C44.6066 23.9077 44.6483 23.8918 44.7899 23.906L44.9894 21.916C44.3582 21.8527 43.7198 21.9698 43.2534 22.4874C42.878 22.904 42.7511 23.4613 42.6755 23.7834L44.6226 24.2402ZM44.7904 23.9061C46.203 24.0469 47.4593 23.7591 48.5232 23.0979C49.576 22.4436 50.3795 21.4624 50.9702 20.3074L49.1895 19.3967C48.7212 20.3124 48.1399 20.9813 47.4675 21.3992C46.8063 21.8102 45.9969 22.0165 44.9889 21.9159L44.7904 23.9061ZM50.97 20.3078C53.7463 14.8858 54.0462 9.24699 51.5443 3.62098L49.7168 4.43367C51.9593 9.47614 51.7065 14.4812 49.1898 19.3963L50.97 20.3078ZM45.347 6.77837C43.7027 6.72625 41.9752 6.92199 40.3885 7.93303L41.4633 9.61972C42.5675 8.91611 43.8295 8.73127 45.2836 8.77736L45.347 6.77837ZM40.4316 7.90705L39.9314 8.19146L40.9199 9.93011L41.4201 9.6457L40.4316 7.90705ZM39.8985 9.91056C40.6051 10.3489 41.2967 10.0531 41.489 9.98142L40.7904 8.10741C40.7319 8.12922 40.7014 8.13989 40.6784 8.14669C40.6574 8.15293 40.6626 8.14973 40.6848 8.14748C40.7097 8.14495 40.7543 8.14376 40.8101 8.15532C40.8676 8.16725 40.9165 8.18853 40.9528 8.21101L39.8985 9.91056ZM41.265 10.0365C42.4166 9.89111 43.5859 10.0098 44.6868 10.3841L45.3305 8.49049C43.9426 8.01864 42.4676 7.8688 41.0144 8.05229L41.265 10.0365ZM44.6644 10.3761C44.7481 10.4068 44.8025 10.4313 44.8372 10.4504C44.8731 10.4702 44.8615 10.4699 44.8332 10.4389C44.7981 10.4007 44.7521 10.3308 44.7318 10.2358C44.7123 10.1443 44.7299 10.0905 44.7268 10.1006L46.642 10.6768C46.7227 10.4086 46.7513 10.1165 46.6879 9.81907C46.6238 9.5181 46.4789 9.2746 46.3077 9.0878C45.9971 8.74874 45.5851 8.58353 45.3529 8.4984L44.6644 10.3761ZM44.7268 10.1006C44.7211 10.1196 44.7329 10.0684 44.7983 10.0022C44.8686 9.931 44.9527 9.8912 45.0193 9.87504C45.0748 9.86156 45.098 9.86904 45.0679 9.86537C45.0391 9.86185 44.9879 9.85147 44.9083 9.8267L44.3142 11.7364C44.5766 11.818 45.0238 11.9321 45.4913 11.8185C46.0752 11.6767 46.4713 11.2442 46.642 10.6768L44.7268 10.1006ZM44.9296 9.83359C43.2086 9.25574 41.3449 9.28716 39.644 9.92256L40.3439 11.7961C41.6152 11.3212 43.007 11.2978 44.293 11.7296L44.9296 9.83359ZM39.64 9.92405C39.475 9.98648 39.562 9.90929 39.7427 9.98794C39.9143 10.0626 39.9517 10.1859 39.9122 10.105C39.8954 10.0706 39.8753 10.0216 39.8443 9.93867C39.819 9.87073 39.7763 9.75161 39.7345 9.64828C39.6558 9.45415 39.4955 9.08506 39.1542 8.81197L37.9047 10.3736C37.8165 10.3031 37.8199 10.2488 37.8808 10.3992C37.9087 10.4681 37.9298 10.5287 37.9704 10.6375C38.0054 10.7314 38.0533 10.8562 38.115 10.9824C38.2323 11.2227 38.4679 11.6143 38.9445 11.8218C39.4302 12.0332 39.9289 11.9532 40.3479 11.7946L39.64 9.92405ZM39.1689 8.82396C39.2113 8.85921 39.2861 8.94516 39.3195 9.08286C39.3507 9.21145 39.327 9.30774 39.3148 9.34349C39.3038 9.37558 39.2979 9.37377 39.322 9.34297C39.3441 9.31469 39.3783 9.27892 39.422 9.24293L38.1493 7.70007C37.8913 7.91291 37.5742 8.25249 37.4224 8.69624C37.3416 8.9325 37.2975 9.23136 37.3758 9.55433C37.4564 9.88641 37.6459 10.1586 37.89 10.3616L39.1689 8.82396ZM39.4179 9.24622C41.1339 7.84572 43.0986 7.24924 45.3183 7.33662L45.397 5.33817C42.731 5.23322 40.2781 5.96263 38.1533 7.69678L39.4179 9.24622ZM45.3202 7.3367C45.4105 7.34007 45.4719 7.34775 45.511 7.35619C45.5521 7.36504 45.5365 7.36801 45.495 7.34114C45.4721 7.32631 45.4421 7.30281 45.4117 7.26834C45.3807 7.23321 45.3554 7.19352 45.3372 7.15259C45.3001 7.06885 45.3117 7.02392 45.308 7.06307L47.2994 7.24862C47.327 6.95221 47.2974 6.63948 47.1657 6.34225C47.0307 6.03772 46.8173 5.81475 46.5824 5.66256C46.1582 5.3878 45.67 5.34838 45.395 5.33809L45.3202 7.3367ZM45.3091 7.0519C45.3073 7.06964 45.3097 7.01831 45.3598 6.94366C45.4129 6.86444 45.4822 6.81456 45.5343 6.78975C45.5766 6.76955 45.5916 6.77325 45.5527 6.7775C45.5148 6.78163 45.455 6.78337 45.3627 6.77899L45.2678 8.77674C45.5241 8.78891 45.9741 8.79566 46.3948 8.59513C46.9225 8.3436 47.2358 7.8576 47.2983 7.25979L45.3091 7.0519ZM7.51726 10.1049C7.51597 10.0991 7.53342 10.1806 7.48736 10.2983C7.44231 10.4135 7.37198 10.4722 7.35457 10.4851C7.34564 10.4917 7.36467 10.4764 7.4494 10.4419C7.48856 10.426 7.5328 10.4095 7.58847 10.3893C7.63831 10.3712 7.70879 10.346 7.77225 10.3222L7.06861 8.45005C6.95425 8.49303 6.49163 8.63522 6.16353 8.87844C5.96532 9.02537 5.75115 9.24678 5.62484 9.56961C5.49752 9.89503 5.49631 10.2293 5.56462 10.5375L7.51726 10.1049ZM7.76777 10.3239C8.25025 10.1451 8.76603 10.0604 9.35293 10.0065C9.64846 9.97928 9.94482 9.96114 10.2672 9.93964C10.583 9.91857 10.9184 9.89456 11.2589 9.85594L11.0335 7.86868C10.7426 7.90167 10.447 7.92319 10.1341 7.94407C9.82768 7.96451 9.49733 7.98474 9.1698 8.01486C8.51059 8.07547 7.79487 8.18103 7.07309 8.44838L7.76777 10.3239ZM11.7642 8.07613C10.2977 6.92336 8.65545 6.77787 7.20863 6.77787V8.77787C8.54552 8.77787 9.61034 8.92701 10.5282 9.64849L11.7642 8.07613ZM7.20863 6.77787C7.12652 6.77787 7.04058 6.78006 6.97506 6.78144C6.90356 6.78294 6.84624 6.78378 6.7938 6.78292C6.67872 6.78105 6.65048 6.77086 6.66425 6.77515C6.69567 6.78495 6.80901 6.83176 6.89576 6.96156C6.97575 7.08127 6.95636 7.15802 6.95927 7.0812L4.96071 7.00542C4.94748 7.35419 5.00751 7.73555 5.23287 8.07279C5.46498 8.42012 5.78962 8.59737 6.06866 8.68441C6.33003 8.76595 6.58571 8.7798 6.76124 8.78266C6.88106 8.78461 7.1748 8.77787 7.20863 8.77787V6.77787ZM6.95939 7.07779C6.96121 7.02518 6.96916 7.09864 6.88999 7.20042C6.81036 7.30279 6.72031 7.33392 6.70897 7.3373C6.7052 7.33843 6.71484 7.33525 6.74362 7.33181C6.77219 7.32841 6.8107 7.32576 6.86312 7.32457C6.91598 7.32338 6.97333 7.32381 7.04329 7.32484C7.10723 7.32579 7.19172 7.32746 7.27094 7.32716L7.26331 5.32717C7.21572 5.32735 6.95143 5.32206 6.81786 5.32509C6.64081 5.32909 6.39227 5.34463 6.13689 5.42087C5.86937 5.50072 5.55491 5.65935 5.31139 5.97241C5.06832 6.28487 4.97289 6.6522 4.96058 7.00882L6.95939 7.07779ZM7.29007 7.3269C9.16975 7.28376 11.012 7.87428 12.5281 9.00832L13.726 7.40678C11.8535 6.00613 9.57378 5.27396 7.24418 5.32743L7.29007 7.3269ZM12.5286 9.00872C12.6007 9.06259 12.6476 9.09667 12.7072 9.14181C12.7611 9.18265 12.8047 9.21708 12.8415 9.24846C12.9215 9.31679 12.9341 9.34183 12.9259 9.32836C12.9193 9.3174 12.905 9.29074 12.8942 9.24981C12.883 9.20714 12.879 9.16157 12.8826 9.11857C12.8899 9.03197 12.9212 9.02366 12.8599 9.10759L14.4754 10.2867C14.6844 10.0003 14.8436 9.66558 14.8755 9.28652C14.9086 8.89366 14.7965 8.55581 14.6358 8.29088C14.4852 8.04262 14.2914 7.85665 14.1404 7.72766C13.9924 7.60128 13.8244 7.48026 13.7255 7.40639L12.5286 9.00872ZM12.8606 9.10664C12.6934 9.33511 12.5667 9.59926 12.4953 9.74019C12.4027 9.92316 12.3624 9.98659 12.3376 10.0155C12.3362 10.0171 12.394 9.9579 12.4923 9.94212C12.5608 9.93115 12.524 9.96357 12.3102 9.86983L11.5071 11.7015C11.9187 11.8819 12.3607 11.9888 12.8091 11.9169C13.2874 11.8402 13.6262 11.5846 13.8544 11.319C14.0593 11.0806 14.1975 10.8058 14.2795 10.6439C14.3828 10.44 14.427 10.3528 14.4747 10.2876L12.8606 9.10664ZM12.3132 9.87113C10.6979 9.15668 9.01507 9.33271 7.52436 9.78345L8.10321 11.6979C9.3599 11.3179 10.5011 11.2565 11.5042 11.7002L12.3132 9.87113ZM7.52935 9.78195C7.39653 9.82136 7.30702 9.84673 7.22976 9.86191C7.15029 9.87753 7.14335 9.86943 7.17943 9.87424C7.20221 9.87728 7.24308 9.8856 7.29318 9.90827C7.34516 9.9318 7.39575 9.96572 7.43899 10.0083C7.52695 10.095 7.52972 10.1614 7.51746 10.1058L5.56441 10.5366C5.63385 10.8514 5.77278 11.1742 6.03498 11.4327C6.30581 11.6996 6.62724 11.8183 6.91507 11.8567C7.40265 11.9217 7.90062 11.758 8.09821 11.6993L7.52935 9.78195ZM14.3904 19.9506C14.4323 19.6397 14.5336 19.4963 14.6011 19.4348C14.6582 19.3829 14.7747 19.3114 15.0392 19.3227L15.1242 17.3245C14.4265 17.2948 13.7664 17.4904 13.2551 17.9556C12.7543 18.4113 12.4956 19.0351 12.4083 19.6839L14.3904 19.9506ZM15.0392 19.3227C15.3039 19.3339 15.4178 19.4152 15.474 19.4751C15.5397 19.5451 15.6299 19.6989 15.6489 20.0108L17.6452 19.8897C17.6056 19.2379 17.3943 18.5988 16.9325 18.1066C16.4612 17.6044 15.8217 17.3542 15.1242 17.3245L15.0392 19.3227ZM15.649 20.0122C15.6544 20.0999 15.6137 20.2464 15.4627 20.3905C15.3112 20.5351 15.1322 20.5947 15.001 20.5883L14.9042 22.586C15.6606 22.6226 16.356 22.3026 16.8435 21.8374C17.3314 21.3718 17.6941 20.6784 17.6451 19.8883L15.649 20.0122ZM15.001 20.5883C14.8503 20.581 14.6746 20.5009 14.5422 20.3536C14.4125 20.2093 14.3758 20.0611 14.3907 19.9489L12.4081 19.6856C12.2026 21.2331 13.5063 22.5183 14.9042 22.586L15.001 20.5883ZM21.5919 26.1658C21.5528 25.6403 21.5947 25.199 21.5947 24.5192H19.5947C19.5947 24.9894 19.5518 25.7021 19.5974 26.3143L21.5919 26.1658ZM21.5947 24.5192C21.5947 22.2371 21.894 20.0972 22.862 18.1485L21.0707 17.2588C19.9126 19.5905 19.5947 22.0748 19.5947 24.5192H21.5947ZM22.8623 18.1478C23.6213 16.6171 24.6281 15.7869 26.1338 15.7961L26.146 13.7961C23.6133 13.7807 22.0341 15.3158 21.0704 17.2594L22.8623 18.1478ZM26.1399 15.7961C27.5919 15.7961 28.5823 16.6328 29.3003 18.1002L31.0967 17.2211C30.1808 15.3492 28.6255 13.7961 26.1399 13.7961V15.7961ZM29.2992 18.0981C30.6314 20.8368 30.9688 23.7855 30.5551 26.834L32.5369 27.1029C32.9946 23.7307 32.63 20.3732 31.0977 17.2232L29.2992 18.0981ZM30.5549 26.8349C30.4294 27.7661 30.0559 28.4619 29.5262 28.9536C28.9914 29.45 28.2387 29.7922 27.2736 29.9059L27.5076 31.8922C28.8179 31.7378 29.9895 31.2524 30.8869 30.4194C31.7894 29.5816 32.3559 28.4461 32.537 27.102L30.5549 26.8349ZM27.2824 29.9049C26.6492 29.9738 26.0111 29.9857 25.3758 29.9405L25.2338 31.9354C25.9885 31.9891 26.7464 31.975 27.4987 31.8932L27.2824 29.9049ZM25.3645 29.9397C24.1543 29.8673 23.2805 29.4747 22.6876 28.8822C22.0928 28.2878 21.6875 27.3989 21.5917 26.1627L19.5977 26.3173C19.7217 27.9171 20.2695 29.2933 21.2739 30.2969C22.2801 31.3024 23.6514 31.8408 25.2451 31.9361L25.3645 29.9397ZM36.5955 19.9964C36.6185 19.6988 36.706 19.5686 36.7721 19.5034C36.8454 19.4312 37.0005 19.3338 37.3318 19.2939L37.0926 17.3083C36.4557 17.385 35.8413 17.6129 35.3684 18.0788C34.8884 18.5517 34.6531 19.1725 34.6015 19.8427L36.5955 19.9964ZM37.1148 19.2963C37.4244 19.3266 37.5789 19.4142 37.6555 19.4845C37.7227 19.5462 37.8143 19.6706 37.8459 19.9634L39.8343 19.7488C39.7611 19.0698 39.4986 18.4616 39.0081 18.0112C38.5269 17.5695 37.92 17.3656 37.3096 17.3058L37.1148 19.2963ZM37.8459 19.9633C37.8745 20.2286 37.6016 20.5896 37.2255 20.5998L37.2797 22.5991C38.715 22.5601 39.9994 21.2802 39.8344 19.749L37.8459 19.9633ZM37.2255 20.5998C36.873 20.6093 36.5757 20.2537 36.5955 19.9966L34.6015 19.8426C34.4842 21.3614 35.8208 22.6386 37.2797 22.5991L37.2255 20.5998ZM31.3074 25.0736V24.3718H29.3074V25.0736H31.3074ZM31.3074 24.3648C31.2932 22.3427 30.8959 20.3418 30.1366 18.4712L28.2835 19.2233C28.9473 20.859 29.295 22.6093 29.3074 24.3788L31.3074 24.3648ZM30.1302 18.4558C29.8202 17.7271 29.4098 16.9257 28.7796 16.3032C28.1158 15.6476 27.241 15.2234 26.1104 15.218L26.1008 17.218C26.6788 17.2208 27.0606 17.4165 27.3742 17.7262C27.7213 18.069 28.0088 18.5781 28.2899 19.2387L30.1302 18.4558ZM26.1104 15.218C24.9874 15.2126 24.1013 15.6171 23.4242 16.2669C22.7781 16.8869 22.3596 17.6937 22.0535 18.4529L23.9084 19.2007C24.1732 18.544 24.4627 18.0423 24.8091 17.7099C25.1244 17.4072 25.5152 17.2152 26.1008 17.218L26.1104 15.218ZM22.0542 18.4511C21.0002 21.0514 20.764 23.7681 21.0129 26.4688L23.0045 26.2852C22.7774 23.8215 23.0011 21.4392 23.9077 19.2025L22.0542 18.4511ZM21.0129 26.4686C21.1435 27.8887 21.771 29.288 23.3149 30.0502L24.2003 28.2569C23.4567 27.8897 23.0918 27.2347 23.0045 26.2854L21.0129 26.4686ZM23.3161 30.0508C25.2854 31.0199 27.2956 31.0215 28.853 30.0519C30.4098 29.0826 31.2994 27.2768 31.3074 25.0773L29.3074 25.07C29.3013 26.7396 28.6457 27.825 27.796 28.354C26.9469 28.8826 25.6892 28.9896 24.1991 28.2563L23.3161 30.0508Z" fill="#08A53F" mask="url(#path-1-inside-1_3324_1594)"/>
<path d="M68.5176 29V6.32178H76.0713V29H68.5176ZM77.2334 25.7871V14.7642L82.5312 6.33887L90.3926 6.32178L77.2334 25.7871ZM90.7515 29H82.5825L80.019 23.7192L84.4966 17.0029L90.7515 29ZM106.286 10.8506H100.681V6.32178H109.448L113.994 10.8506V15.4648L111.721 17.7378L113.994 20.0107V24.4712L109.448 29H100.681V24.4712H106.286V19.6348H100.681V15.687H106.286V10.8506ZM91.9307 6.32178H99.4844V29H91.9307V6.32178ZM124.709 29H121.701L117.155 24.4712V10.8506L121.701 6.32178H124.709V29ZM125.905 10.8506V6.32178H133.955L138.483 10.8506V15.4136H130.93V10.8506H125.905ZM125.905 29V24.4712H130.93V21.1558H138.483V24.4712L133.955 29H125.905Z" fill="white"/>
<defs>
<linearGradient id="paint0_linear_3324_1594" x1="31.2411" y1="7.98" x2="22.4754" y2="33.7834" gradientUnits="userSpaceOnUse">
<stop stop-color="#08A53F"/>
<stop offset="1" stop-color="#62EA10"/>
</linearGradient>
<linearGradient id="paint1_linear_3324_1594" x1="31.2411" y1="7.98" x2="22.4754" y2="33.7834" gradientUnits="userSpaceOnUse">
<stop stop-color="#08A53F"/>
<stop offset="1" stop-color="#62EA10"/>
</linearGradient>
</defs>
</svg>
